HIERARCHY
ROOT root
{
	OFFSET 0.00 0.00 0.00
	CHANNELS 6 Xposition Yposition Zposition Zrotation Xrotation Yrotation
	JOINT lowerback
	{
		OFFSET 0 0 0
		CHANNELS 6 Xposition Yposition Zposition Zrotation Xrotation Yrotation
		JOINT upperback
		{
			OFFSET -0.214371 12.3768 -1.12219
			CHANNELS 6 Xposition Yposition Zposition Zrotation Xrotation Yrotation
			JOINT thorax
			{
				OFFSET -0.00137213 12.3873 0.296195
				CHANNELS 6 Xposition Yposition Zposition Zrotation Xrotation Yrotation
				JOINT lowerneck
				{
					OFFSET 0.0883157 12.5016 0.82912
					CHANNELS 6 Xposition Yposition Zposition Zrotation Xrotation Yrotation
					JOINT upperneck
					{
						OFFSET -1 10.1794 0.943522
						CHANNELS 6 Xposition Yposition Zposition Zrotation Xrotation Yrotation
						JOINT head
						{
							OFFSET 0.667525 10.2797 -1.57149
							CHANNELS 6 Xposition Yposition Zposition Zrotation Xrotation Yrotation
							End Site
							{
								OFFSET 0 0 0
							}
						}
					}
				}
				JOINT lclavicle
				{
					OFFSET 0.0883157 12.5016 0.82912
					CHANNELS 6 Xposition Yposition Zposition Zrotation Xrotation Yrotation
					JOINT lhumerus
					{
						OFFSET 20.61 4.45006 1.43784
						CHANNELS 6 Xposition Yposition Zposition Zrotation Xrotation Yrotation
						JOINT lradius
						{
							OFFSET 0 -30.3438 0
							CHANNELS 6 Xposition Yposition Zposition Zrotation Xrotation Yrotation
							JOINT lwrist
							{
								OFFSET 0 -18.964 0
								CHANNELS 6 Xposition Yposition Zposition Zrotation Xrotation Yrotation
								JOINT lhand
								{
									OFFSET 0 -9.48199 0
									CHANNELS 6 Xposition Yposition Zposition Zrotation Xrotation Yrotation
									JOINT lfingers
									{
										OFFSET 0 -3.17138 0
										CHANNELS 6 Xposition Yposition Zposition Zrotation Xrotation Yrotation
										End Site
										{
											OFFSET 0 -2.55685 0
										}
									}
								}
								JOINT lthumb
								{
									OFFSET 0 -9.48199 0
									CHANNELS 6 Xposition Yposition Zposition Zrotation Xrotation Yrotation
									End Site
									{
										OFFSET 0 -3.67114 0
									}
								}
							}
						}
					}
				}
				JOINT rclavicle
				{
					OFFSET 0.0883157 12.5016 0.82912
					CHANNELS 6 Xposition Yposition Zposition Zrotation Xrotation Yrotation
					JOINT rhumerus
					{
						OFFSET -20.61 4.45 1.44
						CHANNELS 6 Xposition Yposition Zposition Zrotation Xrotation Yrotation
						JOINT rradius
						{
							OFFSET 0 -29.5102 0
							CHANNELS 6 Xposition Yposition Zposition Zrotation Xrotation Yrotation
							JOINT rwrist
							{
								OFFSET 0 -19.2342 0
								CHANNELS 6 Xposition Yposition Zposition Zrotation Xrotation Yrotation
								JOINT rhand
								{
									OFFSET 0 -9.61712 0
									CHANNELS 6 Xposition Yposition Zposition Zrotation Xrotation Yrotation
									JOINT rfingers
									{
										OFFSET 0 -3.29215 0
										CHANNELS 6 Xposition Yposition Zposition Zrotation Xrotation Yrotation
										End Site
										{
											OFFSET 0 -2.557 0
										}
									}
								}
								JOINT rthumb
								{
									OFFSET 0 -9.61712 0
									CHANNELS 6 Xposition Yposition Zposition Zrotation Xrotation Yrotation
									End Site
									{
										OFFSET 0 -3.671 0
									}
								}
							}
						}
					}
				}
			}
		}
	}
	JOINT rfemur
	{
		OFFSET -8.46272 -9.62775 4.76248
		CHANNELS 6 Xposition Yposition Zposition Zrotation Xrotation Yrotation
		JOINT rtibia
		{
			OFFSET 1.00552e-005 -38.0331 0
			CHANNELS 6 Xposition Yposition Zposition Zrotation Xrotation Yrotation
			JOINT rfoot
			{
				OFFSET 1.14428e-005 -43.2815 0
				CHANNELS 6 Xposition Yposition Zposition Zrotation Xrotation Yrotation
				JOINT rtoes
				{
					OFFSET 0 -14.1868 -3.08763
					CHANNELS 6 Xposition Yposition Zposition Zrotation Xrotation Yrotation
					End Site
					{
						OFFSET 0 -7.27332 0
					}
				}
			}
		}
	}
	JOINT lfemur
	{
		OFFSET 9.10607 -9.62778 4.76249
		CHANNELS 6 Xposition Yposition Zposition Zrotation Xrotation Yrotation
		JOINT ltibia
		{
			OFFSET -1.01399e-005 -38.3535 0
			CHANNELS 6 Xposition Yposition Zposition Zrotation Xrotation Yrotation
			JOINT lfoot
			{
				OFFSET -1.12937e-005 -42.7176 0
				CHANNELS 6 Xposition Yposition Zposition Zrotation Xrotation Yrotation
				JOINT ltoes
				{
					OFFSET 0 -13.9965 -2.83857
					CHANNELS 6 Xposition Yposition Zposition Zrotation Xrotation Yrotation
					End Site
					{
						OFFSET 0 -7.16348 0
					}
				}
			}
		}
	}
}
MOTION
Frames: 5
Frame Time: 0.00833333
7.15369	96.3695	107.559	-0.183239	1.48163	-6.2182	0 0 0 0.14735	-2.86354	-0.307985	-0.214371 12.3768 -1.12219 -1.60066	2.30341	-0.360966	-0.00137213 12.3873 0.296195 -1.76894	3.96813	-0.151594	0.0883157 12.5016 0.82912 -4.30105	-10.1634	-2.52971	-1 10.1794 0.943522 10.6989	8.34112	-3.92115	0.667525 10.2797 -1.57149 3.6079	4.44889	-1.46457	0.0883157 12.5016 0.82912 -15	0	-0	20.61 4.45006 1.43784 18.1226	-5.7679	-169.329	0 -30.3438 0 -0	24.6195	-0	0 -18.964 0 1.31898e-014	-3.33581e-015	-118.386	0 -9.48199 0 1.22245	4.37968	-2.58917e-014	0 -3.17138 0 -0	7.12502	-0	0 -9.48199 0 25	15	-1.36605e-015	0.0883157 12.5016 0.82912 15	0	-0	-20.61 4.45 1.44 -13.619	-0.676576	174.833	0 -29.5102 0 -0	27.9095	-0	0 -19.2342 0 9.2554e-016	-3.48308e-015	119.762	0 -9.61712 0 1.22	4.38	-0	0 -3.29215 0 -0	7.12502	-0	0 -9.61712 0 25	15	-7.97034e-015	-8.46272 -9.62775 4.76248 -2.15495	-22.9758	1.63712	1.00552e-005 -38.0331 0 -0	57.2694	-0	1.14428e-005 -43.2815 0 -47.1109	-74.6197	-48.1508	0 -14.1868 -3.08763 -0	-37.9521	-0	9.10607 -9.62778 4.76249 -5.58331	-1.25148	10.0675	-1.01399e-005 -38.3535 0 -0	16.8161	-0	-1.12937e-005 -42.7176 0 3.46565	-78.0279	3.5426	0 -13.9965 -2.83857 -0	-22.7027	-0
7.16279	96.327	107.963	-0.192228	1.48843	-6.26492	0 0 0 0.104431	-2.84053	-0.3433	-0.214371 12.3768 -1.12219 -1.57123	2.30394	-0.40728	-0.00137213 12.3873 0.296195 -1.71826	3.95875	-0.176278	0.0883157 12.5016 0.82912 -4.22775	-10.1883	-2.48324	-1 10.1794 0.943522 10.6352	8.39852	-3.86642	0.667525 10.2797 -1.57149 3.58072	4.46395	-1.4368	0.0883157 12.5016 0.82912 -15	0	-0	20.61 4.45006 1.43784 18.2075	-5.92326	-169.579	0 -30.3438 0 -0	24.8124	-0	0 -18.964 0 1.31993e-014	-3.31813e-015	-118.222	0 -9.48199 0 1.22245	4.37968	-2.58917e-014	0 -3.17138 0 -0	7.12502	-0	0 -9.48199 0 25	15	-1.36605e-015	0.0883157 12.5016 0.82912 15	0	-0	-20.61 4.45 1.44 -13.5849	-0.622428	174.694	0 -29.5102 0 -0	27.8391	-0	0 -19.2342 0 9.27608e-016	-3.4867e-015	119.796	0 -9.61712 0 1.22	4.38	-0	0 -3.29215 0 -0	7.12502	-0	0 -9.61712 0 25	15	-7.97034e-015	-8.46272 -9.62775 4.76248 -1.90517	-23.5914	1.89138	1.00552e-005 -38.0331 0 -0	56.2219	-0	1.14428e-005 -43.2815 0 -48.46	-74.7549	-49.476	0 -14.1868 -3.08763 -0	-38.3991	-0	9.10607 -9.62778 4.76249 -5.63828	-1.03069	9.9276	-1.01399e-005 -38.3535 0 -0	16.8883	-0	-1.12937e-005 -42.7176 0 4.49516	-78.1767	4.59227	0 -13.9965 -2.83857 -0	-22.7944	-0
7.16854	96.2936	108.363	-0.19716	1.50192	-6.30765	0 0 0 0.0580681	-2.82003	-0.377766	-0.214371 12.3768 -1.12219 -1.54299	2.30418	-0.452298	-0.00137213 12.3873 0.296195 -1.66675	3.94827	-0.200402	0.0883157 12.5016 0.82912 -4.15531	-10.213	-2.43799	-1 10.1794 0.943522 10.5744	8.45159	-3.81317	0.667525 10.2797 -1.57149 3.55451	4.47792	-1.40975	0.0883157 12.5016 0.82912 -15	0	-0	20.61 4.45006 1.43784 18.2871	-6.07483	-169.823	0 -30.3438 0 -0	24.9976	-0	0 -18.964 0 1.32086e-014	-3.30063e-015	-118.06	0 -9.48199 0 1.22245	4.37968	-2.58917e-014	0 -3.17138 0 -0	7.12502	-0	0 -9.48199 0 25	15	-1.36605e-015	0.0883157 12.5016 0.82912 15	0	-0	-20.61 4.45 1.44 -13.5466	-0.564717	174.556	0 -29.5102 0 -0	27.7669	-0	0 -19.2342 0 9.29556e-016	-3.4901e-015	119.828	0 -9.61712 0 1.22	4.38	-0	0 -3.29215 0 -0	7.12502	-0	0 -9.61712 0 25	15	-7.97034e-015	-8.46272 -9.62775 4.76248 -1.66426	-24.1898	2.11886	1.00552e-005 -38.0331 0 -0	55.1355	-0	1.14428e-005 -43.2815 0 -49.5239	-74.8907	-50.5158	0 -14.1868 -3.08763 -0	-38.7759	-0	9.10607 -9.62778 4.76249 -5.69949	-0.780276	9.8009	-1.01399e-005 -38.3535 0 -0	16.8861	-0	-1.12937e-005 -42.7176 0 5.46307	-78.2843	5.57866	0 -13.9965 -2.83857 -0	-22.8881	-0
7.17371	96.2682	108.765	-0.197194	1.52085	-6.34686	0 0 0 0.00781578	-2.80036	-0.411224	-0.214371 12.3768 -1.12219 -1.51656	2.30419	-0.495784	-0.00137213 12.3873 0.296195 -1.61476	3.93625	-0.223847	0.0883157 12.5016 0.82912 -4.08395	-10.2368	-2.39397	-1 10.1794 0.943522 10.5172	8.49863	-3.76137	0.667525 10.2797 -1.57149 3.52958	4.49019	-1.3834	0.0883157 12.5016 0.82912 -15	0	-0	20.61 4.45006 1.43784 18.3615	-6.22357	-170.06	0 -30.3438 0 -0	25.1739	-0	0 -18.964 0 1.32178e-014	-3.28344e-015	-117.901	0 -9.48199 0 1.22245	4.37968	-2.58917e-014	0 -3.17138 0 -0	7.12502	-0	0 -9.48199 0 25	15	-1.36605e-015	0.0883157 12.5016 0.82912 15	0	-0	-20.61 4.45 1.44 -13.5035	-0.504585	174.418	0 -29.5102 0 -0	27.6915	-0	0 -19.2342 0 9.31446e-016	-3.49339e-015	119.859	0 -9.61712 0 1.22	4.38	-0	0 -3.29215 0 -0	7.12502	-0	0 -9.61712 0 25	15	-7.97034e-015	-8.46272 -9.62775 4.76248 -1.43287	-24.77	2.32042	1.00552e-005 -38.0331 0 -0	54.0162	-0	1.14428e-005 -43.2815 0 -50.3577	-75.0195	-51.3273	0 -14.1868 -3.08763 -0	-39.0643	-0	9.10607 -9.62778 4.76249 -5.76733	-0.500161	9.68813	-1.01399e-005 -38.3535 0 -0	16.8115	-0	-1.12937e-005 -42.7176 0 6.35478	-78.3527	6.48734	0 -13.9965 -2.83857 -0	-22.9858	-0
7.17812	96.2495	109.17	-0.191428	1.54388	-6.38315	0 0 0 -0.0467761	-2.78008	-0.443541	-0.214371 12.3768 -1.12219 -1.49257	2.30405	-0.537529	-0.00137213 12.3873 0.296195 -1.56264	3.92247	-0.246515	0.0883157 12.5016 0.82912 -4.01396	-10.2592	-2.35121	-1 10.1794 0.943522 10.4644	8.53801	-3.71096	0.667525 10.2797 -1.57149 3.50624	4.50017	-1.35777	0.0883157 12.5016 0.82912 -15	0	-0	20.61 4.45006 1.43784 18.4313	-6.37048	-170.29	0 -30.3438 0 -0	25.3403	-0	0 -18.964 0 1.32267e-014	-3.26654e-015	-117.745	0 -9.48199 0 1.22245	4.37968	-2.58917e-014	0 -3.17138 0 -0	7.12502	-0	0 -9.48199 0 25	15	-1.36605e-015	0.0883157 12.5016 0.82912 15	0	-0	-20.61 4.45 1.44 -13.4554	-0.443247	174.28	0 -29.5102 0 -0	27.6114	-0	0 -19.2342 0 9.33397e-016	-3.49679e-015	119.891	0 -9.61712 0 1.22	4.38	-0	0 -3.29215 0 -0	7.12502	-0	0 -9.61712 0 25	15	-7.97034e-015	-8.46272 -9.62775 4.76248 -1.21146	-25.3306	2.4973	1.00552e-005 -38.0331 0 -0	52.8693	-0	1.14428e-005 -43.2815 0 -51.0112	-75.1301	-51.9616	0 -14.1868 -3.08763 -0	-39.2497	-0	9.10607 -9.62778 4.76249 -5.84222	-0.19093	9.59027	-1.01399e-005 -38.3535 0 -0	16.6679	-0	-1.12937e-005 -42.7176 0 7.15688	-78.3844	7.305	0 -13.9965 -2.83857 -0	-23.0887	-0
